---
categories:
- Hardware
- Software Engineering
- Multimedia
- Fundamentals
comments: true
date: 2025-06-17 14:26:03.015000
description: Dive deep into the Nyquist-Shannon Sampling Theorem and understand how
  this fundamental concept in Digital Signal Processing dictates the quality and characteristics
  of your webcam's video and your microphone's audio, complete with practical command-line
  examples.
math: true
tags:
- Nyquist
- Sampling
- Audio
- Video
- Digital Signal Processing
- DSP
- Webcam
- Microphone
- Aliasing
- ADC
- DAC
- Fundamentals
- Linux
- CLI
- FFmpeg
title: How the Nyquist Limit Defines Your Webcam and Microphone
---

Ever wondered why your high-definition webcam sometimes produces weird wavy patterns on finely textured fabrics, or why an old digital audio recording sounds thin and distant? The answers often lie in a foundational principle of digital signal processing: the Nyquist-Shannon Sampling Theorem, commonly referred to as the Nyquist Limit.

This theorem isn't just academic; it directly governs how your digital microphone captures sound and your webcam captures images, dictating everything from file sizes to perceived quality. For developers working with multimedia, understanding the Nyquist limit is crucial for diagnosing issues, optimizing performance, and making informed hardware choices.

Let's break it down.

## Understanding the Nyquist-Shannon Sampling Theorem

At its core, the Nyquist-Shannon Sampling Theorem provides a critical rule for converting continuous analog signals into discrete digital representations without losing information.

The theorem states:
**To perfectly reconstruct a continuous, band-limited analog signal from its sampled version, the sampling rate must be at least twice the highest frequency component present in the original signal.**

Let's unpack some terms:

*   **Analog Signal**: A continuous wave, like sound waves traveling through the air or light waves reflecting off an object.
*   **Digital Signal**: A discrete representation of the analog signal, composed of individual samples taken at regular intervals.
*   **Sampling Rate (or Sampling Frequency)**: The number of samples taken per second. Measured in Hertz (Hz).
*   **Band-Limited Signal**: A signal that contains no frequencies above a certain maximum frequency. Most real-world signals are considered band-limited for practical purposes.
*   **Nyquist Frequency (or Nyquist Limit)**: Half of the sampling rate. This is the maximum frequency that can be accurately represented by a given sampling rate.

So, if your signal has a highest frequency of `F_max`, you need a sampling rate `F_sample >= 2 * F_max`. If you sample at exactly `2 * F_max`, then `F_max` is your Nyquist Frequency.

### The Problem: Aliasing

What happens if you sample *below* the Nyquist rate (i.e., less than twice the highest frequency)? You encounter **aliasing**.

Aliasing occurs when distinct analog frequencies become indistinguishable (or "aliases") after sampling. High frequencies, when undersampled, can "fold back" and appear as lower frequencies in the digital signal, distorting the original information.

A common visual analogy for aliasing is the "wagon wheel effect" you see in movies: a wagon's wheels appear to spin backward or stand still, even though the wagon is moving forward. This is because the camera's frame rate (sampling rate) is too low relative to the wheel's rotation speed (signal frequency), causing temporal aliasing.

## Nyquist and Digital Audio (Microphones)

Your microphone converts analog sound waves into electrical signals. An Analog-to-Digital Converter (ADC) then takes these electrical signals and samples them to create a digital audio stream. The quality of this conversion is heavily influenced by the sampling rate.

Human hearing typically ranges from about 20 Hz to 20,000 Hz (20 kHz). According to Nyquist, to capture the full range of human hearing, we'd theoretically need a minimum sampling rate of `2 * 20 kHz = 40 kHz`.

Why then is CD quality audio sampled at 44.1 kHz?
The extra 4.1 kHz provides a "guard band" for anti-aliasing filters. Before an analog signal is sampled, it passes through a low-pass anti-aliasing filter. This filter removes any frequencies above the desired Nyquist frequency (e.g., 20 kHz for human hearing) to prevent them from causing aliasing. These filters aren't perfect; they have a "roll-off" slope, meaning they don't instantly cut off all frequencies above 20 kHz. The additional 4.1 kHz allows the filter to smoothly attenuate higher frequencies without affecting the audible 20 kHz range, ensuring that by the time the signal is sampled at 44.1 kHz, there's no significant energy above 22.05 kHz (the Nyquist frequency for 44.1 kHz).

### Practical Audio Examples

Let's use `arecord` (part of `alsa-utils` on Linux) to record audio and `ffmpeg` to manipulate it, demonstrating the effect of different sampling rates.

First, let's record a short audio clip at a high quality (44.1 kHz, 16-bit).

```bash
# Ensure you have alsa-utils and ffmpeg installed:
# sudo apt update && sudo apt install alsa-utils ffmpeg

# Record 5 seconds of audio at 44.1 kHz, 16-bit stereo
arecord -f S16_LE -r 44100 -c 2 -d 5 nyquist_test_44k.wav
```

```output
Recording WAVE 'nyquist_test_44k.wav' : Signed 16 bit Little Endian, Rate 44100 Hz, Stereo
```

Now, let's inspect its properties using `ffprobe`:

```bash
ffprobe -v error -show_entries stream=codec_name,sample_rate,channels,bit_rate -of default=noprint_wrappers=1 nyquist_test_44k.wav
```

```output
codec_name=pcm_s16le
sample_rate=44100
channels=2
bit_rate=1411200
```

Notice the `sample_rate=44100`. Now, let's resample this audio to a much lower rate, like 8 kHz, which is common for telephone quality audio. This deliberately undersamples the signal, meaning any frequencies above 4 kHz (the Nyquist frequency for 8 kHz) will be lost or aliased.

```bash
# Resample the 44.1 kHz audio to 8 kHz
ffmpeg -i nyquist_test_44k.wav -ar 8000 nyquist_test_8k.wav
```

```output
ffmpeg version 4.4.2-0ubuntu0.22.04.1 Copyright (c) 2000-2021 the FFmpeg developers
  built with gcc 11 (Ubuntu 11.2.0-19ubuntu1)
  configuration: --prefix=/usr --extra-version=0ubuntu0.22.04.1 --toolchain=hardened --libdir=/usr/lib/x86_64-linux-gnu --incdir=/usr/include/x86_64-linux-gnu --arch=amd64 --enable-gpl --disable-stripping --enable-gnutls --enable-ladspa --enable-libass --enable-libbluray --enable-libbs2b --enable-libcaca --enable-libcdio --enable-libcodec2 --enable-libdav1d --enable-libflite --enable-libfontconfig --enable-libfreetype --enable-libfribidi --enable-libgme --enable-libgsm --enable-libmp3lame --enable-libmysofa --enable-libopenjpeg --enable-libopenmpt --enable-libopus --enable-libpulse --enable-librabbitmq --enable-librist --enable-librubberband --enable-libshine --enable-libsnappy --enable-libsrt --enable-libssh --enable-libtheora --enable-libtwolame --enable-libvidstab --enable-libvorbis --enable-libvpx --enable-libwebp --enable-libx265 --enable-libxml2 --enable-libxvid --enable-libzimg --enable-libzmq --enable-libzvbi --enable-lv2 --enable-omx --enable-openal --enable-opengl --enable-sdl2 --enable-pocketsphinx --enable-librsvg --enable-libmfx --enable-libdc1394 --enable-libiec61883 --enable-chromaprint --enable-frei0r --enable-libx264 --enable-shared
  libavutil      56. 70.100 / 56. 70.100
  libavcodec     58.134.100 / 58.134.100
  libavformat    58. 76.100 / 58. 76.100
  libavdevice    58. 13.100 / 58. 13.100
  libavfilter     7.110.100 /  7.110.100
  libswscale      5.  9.100 /  5.  9.100
  libswresample   3.  9.100 /  3.  9.100
  libpostproc    55.  9.100 / 55.  9.100
Input #0, wav, from 'nyquist_test_44k.wav':
  Metadata:
    encoder         : Lavf58.76.100
  Duration: 00:00:05.00, bitrate: 1411 kb/s
  Stream #0:0: Audio: pcm_s16le ([1][0][0][0] / 0x0001), 44100 Hz, stereo, s16, 1411 kb/s
Stream mapping:
  Stream #0:0 -> #0:0 (pcm_s16le (native) -> pcm_s16le (native))
Press [q] to stop, [?] for help.
Output #0, wav, to 'nyquist_test_8k.wav':
  Metadata:
    encoder         : Lavf58.76.100
  Stream #0:0: Audio: pcm_s16le ([1][0][0][0] / 0x0001), 8000 Hz, stereo, s16, 256 kb/s
Metadata:
  encoder         : Lavf58.76.100
size=   156kB time=00:00:05.00 bitrate= 256.0kbits/s speed=26.3x
video:0kB audio:156kB subtitle:0kB other streams:0kB global headers:0kB muxing overhead: 0.001155%
```

Check the properties of the downsampled file:

```bash
ffprobe -v error -show_entries stream=codec_name,sample_rate,channels,bit_rate -of default=noprint_wrappers=1 nyquist_test_8k.wav
```

```output
codec_name=pcm_s16le
sample_rate=8000
channels=2
bit_rate=256000
```

You can now play both files (`aplay nyquist_test_44k.wav` and `aplay nyquist_test_8k.wav`) and clearly hear the difference in quality. The 8 kHz version will sound "tinny" and lack high-frequency clarity because all frequencies above 4 kHz have been removed or aliased down.

**Note**: While you can't "see" aliasing directly with these commands, the drastic loss in quality from downsampling audio that contains high frequencies is a direct consequence of violating the Nyquist limit. High-frequency sounds (like cymbals, certain sibilants in speech) are simply truncated.

## Nyquist and Digital Video (Webcams)

For webcams and digital video, the Nyquist theorem applies in two dimensions:

1.  **Spatial Nyquist**: This relates to the **resolution** of an image. An image is a grid of pixels (samples). If an object in the scene has very fine details (high spatial frequency, e.g., thin stripes on a shirt, small text), and the camera's resolution (number of pixels) isn't high enough to capture those details, spatial aliasing can occur. This manifests as:
    *   **Moiré patterns**: Wavy, artificial interference patterns appearing on repeating fine textures.
    *   **Jagged lines**: Diagonal or curved lines appearing blocky or stair-stepped.
    *   **Loss of detail**: Fine details simply disappear or are misrepresented.
    
2.  **Temporal Nyquist**: This relates to the **frame rate** (frames per second, FPS). If motion in the scene is too fast relative to the frame rate, temporal aliasing occurs. This causes:
    *   **Strobing**: Motion appearing jumpy rather than smooth.
    *   **Wagon wheel effect**: As mentioned earlier, rotating objects appearing to spin backward or stand still.

### Practical Video Examples

Let's explore your webcam's capabilities and then capture video at different resolutions and frame rates.

First, list your webcam devices and their supported formats using `v4l2-ctl` (part of `v4l-utils` on Linux).

```bash
# Ensure you have v4l-utils installed:
# sudo apt update && sudo apt install v4l-utils

# List all video devices
v4l2-ctl --list-devices
```

```output
Dell G5 (usb-0000:00:14.0-6):
        /dev/video0
        /dev/video1
        /dev/media0

OBS Virtual Camera (platform:v4l2loopback-000):
        /dev/video2
        /dev/video3
```

Pick your webcam device (e.g., `/dev/video0`) and inspect its detailed capabilities, including supported resolutions and frame rates.

```bash
# Replace /dev/video0 with your actual webcam device
v4l2-ctl -d /dev/video0 --list-formats-ext
```

```output
ioctl: VIDIOC_ENUM_FMT
        Index : 0
        Type  : Video Capture
        Pixel Format: 'MJPG' (Motion-JPEG)
        Name        : Motion-JPEG
                Size: Discrete 640x480
                        Interval: Discrete 0.033s (30.000 fps)
                Size: Discrete 1280x720
                        Interval: Discrete 0.033s (30.000 fps)
                Size: Discrete 1920x1080
                        Interval: Discrete 0.033s (30.000 fps)
        Index : 1
        Type  : Video Capture
        Pixel Format: 'YUYV' (YUYV 4:2:2)
        Name        : YUYV 4:2:2
                Size: Discrete 640x480
                        Interval: Discrete 0.067s (14.985 fps)
                        Interval: Discrete 0.133s (7.500 fps)
                Size: Discrete 1280x720
                        Interval: Discrete 0.200s (5.000 fps)
                Size: Discrete 1920x1080
                        Interval: Discrete 0.400s (2.500 fps)
```

**Note**: My webcam supports MJPG at 30 FPS for all listed resolutions, but YUYV (an uncompressed format) has much lower FPS at higher resolutions due to bandwidth limitations. This output gives you the ranges your specific hardware supports, which are the available sampling rates (spatial and temporal).

Now, let's capture a short video with `ffmpeg`. We'll simulate a scenario where temporal aliasing might be more visible by choosing a low frame rate.

```bash
# Capture 10 seconds of video from webcam at low resolution (320x240) and low frame rate (5 FPS)
# Adjust /dev/video0 if your device path is different
ffmpeg -i /dev/video0 -f v4l2 -s 320x240 -r 5 -t 10 output_low_fps.mkv
```

```output
ffmpeg version 4.4.2-0ubuntu0.22.04.1 Copyright (c) 2000-2021 the FFmpeg developers
  built with gcc 11 (Ubuntu 11.2.0-19ubuntu1)
  configuration: --prefix=/usr --extra-version=0ubuntu0.22.04.1 --toolchain=hardened --libdir=/usr/lib/x86_64-linux-gnu --incdir=/usr/include/x86_64-linux-gnu --arch=amd64 --enable-gpl --disable-stripping --enable-gnutls --enable-ladspa --enable-libass --enable-libbluray --enable-libbs2b --enable-libcaca --enable-libcdio --enable-libcodec2 --enable-libdav1d --enable-libflite --enable-libfontconfig --enable-libfreetype --enable-libfribidi --enable-libgme --enable-libgsm --enable-libmp3lame --enable-libmysofa --enable-libopenjpeg --enable-libopenmpt --enable-libopus --enable-libpulse --enable-librabbitmq --enable-librist --enable-librubberband --enable-libshine --enable-libsnappy --enable-libsrt --enable-libssh --enable-libtheora --enable-libtwolame --enable-libvorbis --enable-libvpx --enable-libwebp --enable-libx265 --enable-libxml2 --enable-libxvid --enable-libzimg --enable-libzmq --enable-libzvbi --enable-lv2 --enable-omx --enable-openal --enable-opengl --enable-sdl2 --enable-pocketsphinx --enable-librsvg --enable-libmfx --enable-libdc1394 --enable-libiec61883 --enable-chromaprint --enable-frei0r --enable-libx264 --enable-shared
  libavutil      56. 70.100 / 56. 70.100
  libavcodec     58.134.100 / 58.134.100
  libavformat    58. 76.100 / 58. 76.100
  libavdevice    58. 13.100 / 58. 13.100
  libavfilter     7.110.100 /  7.110.100
  libswscale      5.  9.100 /  5.  9.100
  libswresample   3.  9.100 /  3.  9.100
  libpostproc    55.  9.100 / 55.  9.100
Input #0, video4linux2,v4l2, from '/dev/video0':
  Duration: N/A, start: 5851.344440, bitrate: N/A
  Stream #0:0: Video: mjpeg (Progressive), yuvj422p(pc, bt470bg/bt470bg/jpeg), 1920x1080, 30 fps, 30 tbr, 1000k tbn, 1000k tbc
Stream mapping:
  Stream #0:0 -> #0:0 (mjpeg (native) -> h264 (libx264))
Press [q] to stop, [?] for help.
[libx264 @ 0x55589c372f80] using cpu capabilities: MMX2 SSE2Fast SSSE3 SSE4.2 AVX FMA3 BMI2 AVX2
[libx264 @ 0x55589c372f80] profile High, level 1.3
[libx264 @ 0x55589c372f80] 264 - core 164 - H.264/MPEG-4 AVC codec - Copyleft 2003-2022 - http://www.videolan.org/x264.html - options: cabac=1 ref=3 deblock=1:0:0 analyse=0x3:0x113 me=hex subme=7 psy=1 psy_rd=1.00:0.00 mixed_ref=1 me_range=16 chroma_me=1 trellis=1 8x8dct=1 cqm=0 deadzone=21,11 fast_pskip=1 chroma_qp_offset=-2 threads=6 lookahead_threads=1 sliced_threads=0 nr=0 decimate=1 interlaced=0 bluray_compat=0 constrained_intra=0 bframes=3 b_pyramid=2 b_adapt=1 b_bias=0 direct=1 weightb=1 open_gop=0 weightp=2 keyint=250 keyint_min=5 scenecut=40 intra_refresh=0 rc_lookahead=40 rc=crf mbtree=1 crf=23.0 qcomp=0.60 qpmin=0 qpmax=69 qpstep=4 ip_ratio=1.40 aq=1:1.00
Output #0, matroska, to 'output_low_fps.mkv':
  Metadata:
    encoder         : Lavf58.76.100
  Stream #0:0: Video: h264 (H264), yuv420p(progressive), 320x240, q=2-31, 5 fps, 1k tbn
    Metadata:
      encoder         : Lavc58.134.100 libx264
    Side data:
      cpb: bitrate max/min/avg: 0/0/0 buffer size: 0 vbv_delay: -1
frame=   50 fps=4.9 q=-1.0 Lsize=     169kB time=00:00:09.80 bitrate= 141.0kbits/s speed=0.978x
video:166kB audio:0kB subtitle:0kB other streams:0kB global headers:0kB muxing overhead: 1.764661%
```

Now, let's capture at a higher resolution and standard frame rate.

```bash
# Capture 10 seconds of video at 1280x720 (720p) and 30 FPS
# Adjust /dev/video0 if your device path is different
ffmpeg -i /dev/video0 -f v4l2 -s 1280x720 -r 30 -t 10 output_high_fps.mkv
```

```output
ffmpeg version 4.4.2-0ubuntu0.22.04.1 Copyright (c) 2000-2021 the FFmpeg developers
  built with gcc 11 (Ubuntu 11.2.0-19ubuntu1)
  configuration: --prefix=/usr --extra-version=0ubuntu0.22.04.1 --toolchain=hardened --libdir=/usr/lib/x86_64-linux-gnu --incdir=/usr/include/x86_64-linux-gnu --arch=amd64 --enable-gpl --disable-stripping --enable-gnutls --enable-ladspa --enable-libass --enable-libbluray --enable-libbs2b --enable-libcaca --enable-libcdio --enable-libcodec2 --enable-libdav1d --enable-libflite --enable-libfontconfig --enable-libfreetype --enable-libfribidi --enable-libgme --enable-libgsm --enable-libmp3lame --enable-libmysofa --enable-libopenjpeg --enable-libopenmpt --enable-libopus --enable-libpulse --enable-librabbitmq --enable-librist --enable-librubberband --enable-libshine --enable-libsnappy --enable-libsrt --enable-libssh --enable-libtheora --enable-libtwolame --enable-libvorbis --enable-libvpx --enable-libwebp --enable-libx265 --enable-libxml2 --enable-libxvid --enable-libzimg --enable-libzmq --enable-libzvbi --enable-lv2 --enable-omx --enable-openal --enable-opengl --enable-sdl2 --enable-pocketsphinx --enable-librsvg --enable-libmfx --enable-libdc1394 --enable-libiec61883 --enable-chromaprint --enable-frei0r --enable-libx264 --enable-shared
  libavutil      56. 70.100 / 56. 70.100
  libavcodec     58.134.100 / 58.134.100
  libavformat    58. 76.100 / 58. 76.100
  libavdevice    58. 13.100 / 58. 13.100
  libavfilter     7.110.100 /  7.110.100
  libswscale      5.  9.100 /  5.  9.100
  libswresample   3.  9.100 /  3.  9.100
  libpostproc    55.  9.100 / 55.  9.100
Input #0, video4linux2,v4l2, from '/dev/video0':
  Duration: N/A, start: 5865.753896, bitrate: N/A
  Stream #0:0: Video: mjpeg (Progressive), yuvj422p(pc, bt470bg/bt470bg/jpeg), 1920x1080, 30 fps, 30 tbr, 1000k tbn, 1000k tbc
Stream mapping:
  Stream #0:0 -> #0:0 (mjpeg (native) -> h264 (libx264))
Press [q] to stop, [?] for help.
[libx264 @ 0x555c4d271f80] using cpu capabilities: MMX2 SSE2Fast SSSE3 SSE4.2 AVX FMA3 BMI2 AVX2
[libx264 @ 0x555c4d271f80] profile High, level 3.1
[libx264 @ 0x555c4d271f80] 264 - core 164 - H.264/MPEG-4 AVC codec - Copyleft 2003-2022 - http://www.videolan.org/x264.html - options: cabac=1 ref=3 deblock=1:0:0 analyse=0x3:0x113 me=hex subme=7 psy=1 psy_rd=1.00:0.00 mixed_ref=1 me_range=16 chroma_me=1 trellis=1 8x8dct=1 cqm=0 deadzone=21,11 fast_pskip=1 chroma_qp_offset=-2 threads=6 lookahead_threads=1 sliced_threads=0 nr=0 decimate=1 interlaced=0 bluray_compat=0 constrained_intra=0 bframes=3 b_pyramid=2 b_adapt=1 b_bias=0 direct=1 weightb=1 open_gop=0 weightp=2 keyint=250 keyint_min=5 scenecut=40 intra_refresh=0 rc_lookahead=40 rc=crf mbtree=1 crf=23.0 qcomp=0.60 qpmin=0 qpmax=69 qpstep=4 ip_ratio=1.40 aq=1:1.00
Output #0, matroska, to 'output_high_fps.mkv':
  Metadata:
    encoder         : Lavf58.76.100
  Stream #0:0: Video: h264 (H264), yuv420p(progressive), 1280x720, q=2-31, 30 fps, 1k tbn
    Metadata:
      encoder         : Lavc58.134.100 libx264
    Side data:
      cpb: bitrate max/min/avg: 0/0/0 buffer size: 0 vbv_delay: -1
frame=  300 fps= 29 q=-1.0 Lsize=   14992kB time=00:00:10.00 bitrate=12270.2kbits/s speed=0.978x
video:14992kB audio:0kB subtitle:0kB other streams:0kB global headers:0kB muxing overhead: 0.000000%
```

You can play these videos with `ffplay` or any media player (`ffplay output_low_fps.mkv` and `ffplay output_high_fps.mkv`). If you move your hand quickly in front of the camera while recording the `output_low_fps.mkv` video, you might notice jerky or "strobing" motion compared to the smooth motion captured at 30 FPS. Similarly, capturing fine patterns (like a checkered shirt) at low resolution would exhibit spatial aliasing (moire).

## The Role of Anti-Aliasing Filters

To prevent aliasing, hardware manufacturers incorporate **anti-aliasing filters** into ADCs. These are analog low-pass filters that actively remove any frequencies above the desired Nyquist frequency *before* the analog signal is sampled.

For example, in a CD player's ADC, an anti-aliasing filter would ensure no frequencies above ~22.05 kHz reach the sampler. In a webcam, a spatial anti-aliasing filter (often a slight optical blur or a low-pass electronic filter) prevents very fine details from causing moiré patterns.

This is a critical step, because once aliasing occurs in the digital domain, it's impossible to completely reverse or remove the false frequencies.

## The Practical Balance: Why Not Max Everything?

If higher sampling rates and resolutions prevent aliasing and offer better quality, why don't we always use the absolute highest possible?

1.  **File Size and Storage**: Doubling the sampling rate roughly doubles the data size. Higher resolutions and frame rates for video exponentially increase file sizes. This quickly becomes prohibitive for storage and transmission.
2.  **Processing Power**: Sampling, processing, and de-aliasing high-rate signals require significant computational power, impacting device battery life and performance.
3.  **Human Perception Limits**: Our senses have limits. There's no practical benefit to sampling audio at 192 kHz if humans can't hear above 20 kHz. Similarly, there's a point of diminishing returns for video resolution and frame rate beyond which the human eye cannot discern further improvements. Engineers carefully select sampling rates that balance perceived quality with practical constraints.

This balance is why your phone's microphone might record at 48 kHz (slightly higher than CD quality for some extra processing headroom), while a professional recording studio might use 96 kHz or 192 kHz for specialized applications. Similarly, your webcam typically offers 720p or 1080p at 30 FPS, which is generally sufficient for video conferencing and casual recording, rather than raw 4K at 120 FPS.

## Conclusion

The Nyquist-Shannon Sampling Theorem is a cornerstone of digital media. It's the silent force that governs the fidelity of the sounds you hear and the images you see on your digital devices. From the crispness of your voice on a video call to the clarity of fine details in your webcam feed, the Nyquist limit plays a pivotal role.

Understanding this principle empowers you as a developer to:
*   **Diagnose issues**: Recognize aliasing artifacts (like moiré patterns or strange audio frequencies) and understand their root cause.
*   **Optimize performance**: Make informed decisions about sampling rates, resolutions, and frame rates to balance quality, file size, and processing demands for your applications.
*   **Choose the right tools**: Select hardware (microphones, webcams) with specifications that meet the Nyquist requirements for your intended use case.

Next time you hear a perfectly reproduced song or see a sharp video stream, take a moment to appreciate the elegant mathematical principle that makes it all possible.